{
    "asset" : {
        "generator" : "Khronos glTF Blender I/O v3.4.50",
        "version" : "2.0"
    },
    "extensionsUsed" : [
        "KHR_materials_specular",
        "KHR_materials_ior"
    ],
    "scene" : 0,
    "scenes" : [
        {
            "name" : "Scene",
            "nodes" : [
                0
            ]
        }
    ],
    "nodes" : [
        {
            "mesh" : 0,
            "name" : "Cylinder.007",
            "rotation" : [
                -0.22397255897521973,
                0.9745954275131226,
                0,
                0
            ],
            "scale" : [
                -0.027610234916210175,
                -3.271834373474121,
                -0.027610234916210175
            ],
            "translation" : [
                -0.4778256416320801,
                0.12061214447021484,
                0.01676408015191555
            ]
        }
    ],
    "materials" : [
        {
            "doubleSided" : true,
            "extensions" : {
                "KHR_materials_specular" : {
                    "specularColorFactor" : [
                        0,
                        0,
                        0
                    ]
                },
                "KHR_materials_ior" : {
                    "ior" : 1.4500000476837158
                }
            },
            "name" : "Material.015",
            "pbrMetallicRoughness" : {
                "baseColorFactor" : [
                    0.33833977580070496,
                    0.20667868852615356,
                    0.07698425650596619,
                    1
                ],
                "metallicFactor" : 0,
                "roughnessFactor" : 0.5
            }
        },
        {
            "doubleSided" : true,
            "name" : "Material.016",
            "pbrMetallicRoughness" : {
                "baseColorFactor" : [
                    0.800000011920929,
                    0.800000011920929,
                    0.800000011920929,
                    1
                ],
                "metallicFactor" : 0,
                "roughnessFactor" : 0.5
            }
        },
        {
            "doubleSided" : true,
            "extensions" : {
                "KHR_materials_specular" : {
                    "specularColorFactor" : [
                        0,
                        0,
                        0
                    ]
                },
                "KHR_materials_ior" : {
                    "ior" : 1.4500000476837158
                }
            },
            "name" : "Tape1.001",
            "pbrMetallicRoughness" : {
                "baseColorFactor" : [
                    0.8000000715255737,
                    0.0495782308280468,
                    0.06435129791498184,
                    1
                ],
                "metallicFactor" : 0,
                "roughnessFactor" : 0.5
            }
        },
        {
            "doubleSided" : true,
            "name" : "Material.011",
            "pbrMetallicRoughness" : {
                "baseColorFactor" : [
                    0.15224605798721313,
                    0.8000000715255737,
                    0.7107422947883606,
                    1
                ],
                "metallicFactor" : 0,
                "roughnessFactor" : 0.5
            }
        },
        {
            "doubleSided" : true,
            "name" : "Material.012",
            "pbrMetallicRoughness" : {
                "baseColorFactor" : [
                    0,
                    0,
                    0,
                    1
                ],
                "metallicFactor" : 0,
                "roughnessFactor" : 0.5
            }
        },
        {
            "doubleSided" : true,
            "name" : "Material.013",
            "pbrMetallicRoughness" : {
                "baseColorFactor" : [
                    0.8000000715255737,
                    0.05470551550388336,
                    0.06484729796648026,
                    1
                ],
                "metallicFactor" : 0,
                "roughnessFactor" : 0.5
            }
        },
        {
            "doubleSided" : true,
            "name" : "Material.014",
            "pbrMetallicRoughness" : {
                "baseColorFactor" : [
                    0.800000011920929,
                    0.800000011920929,
                    0.800000011920929,
                    1
                ],
                "metallicFactor" : 0,
                "roughnessFactor" : 0.5
            }
        },
        {
            "doubleSided" : true,
            "extensions" : {
                "KHR_materials_specular" : {
                    "specularColorFactor" : [
                        2.371357614441398,
                        2.371357614441398,
                        2.371357614441398
                    ]
                },
                "KHR_materials_ior" : {
                    "ior" : 1.4500000476837158
                }
            },
            "name" : "Saw.001",
            "pbrMetallicRoughness" : {
                "baseColorFactor" : [
                    0.08532551676034927,
                    0.08532551676034927,
                    0.08532551676034927,
                    1
                ],
                "roughnessFactor" : 0.5
            }
        },
        {
            "doubleSided" : true,
            "extensions" : {
                "KHR_materials_specular" : {
                    "specularColorFactor" : [
                        0,
                        0,
                        0
                    ]
                },
                "KHR_materials_ior" : {
                    "ior" : 1.4500000476837158
                }
            },
            "name" : "Material.010",
            "pbrMetallicRoughness" : {
                "baseColorFactor" : [
                    0.04569892957806587,
                    0.04569892957806587,
                    0.04569892957806587,
                    1
                ],
                "metallicFactor" : 0,
                "roughnessFactor" : 0.5
            }
        }
    ],
    "meshes" : [
        {
            "name" : "Cylinder.013",
            "primitives" : [
                {
                    "attributes" : {
                        "POSITION" : 0,
                        "TEXCOORD_0" : 1,
                        "NORMAL" : 2
                    },
                    "indices" : 3,
                    "material" : 0
                },
                {
                    "attributes" : {
                        "POSITION" : 4,
                        "TEXCOORD_0" : 5,
                        "NORMAL" : 6
                    },
                    "indices" : 7,
                    "material" : 1
                },
                {
                    "attributes" : {
                        "POSITION" : 8,
                        "TEXCOORD_0" : 9,
                        "NORMAL" : 10
                    },
                    "indices" : 11,
                    "material" : 2
                },
                {
                    "attributes" : {
                        "POSITION" : 12,
                        "TEXCOORD_0" : 13,
                        "NORMAL" : 14
                    },
                    "indices" : 15,
                    "material" : 3
                },
                {
                    "attributes" : {
                        "POSITION" : 16,
                        "TEXCOORD_0" : 17,
                        "NORMAL" : 18
                    },
                    "indices" : 19,
                    "material" : 4
                },
                {
                    "attributes" : {
                        "POSITION" : 20,
                        "TEXCOORD_0" : 21,
                        "NORMAL" : 22
                    },
                    "indices" : 23,
                    "material" : 5
                },
                {
                    "attributes" : {
                        "POSITION" : 24,
                        "TEXCOORD_0" : 25,
                        "NORMAL" : 26
                    },
                    "indices" : 27,
                    "material" : 6
                },
                {
                    "attributes" : {
                        "POSITION" : 28,
                        "TEXCOORD_0" : 29,
                        "NORMAL" : 30
                    },
                    "indices" : 31,
                    "material" : 7
                },
                {
                    "attributes" : {
                        "POSITION" : 32,
                        "TEXCOORD_0" : 33,
                        "NORMAL" : 34
                    },
                    "indices" : 35,
                    "material" : 8
                }
            ]
        }
    ],
    "accessors" : [
        {
            "bufferView" : 0,
            "componentType" : 5126,
            "count" : 552,
            "max" : [
                222.6240234375,
                1.0247026681900024,
                111.88884735107422
            ],
            "min" : [
                -197.72628784179688,
                -2.2718558311462402,
                -111.3479232788086
            ],
            "type" : "VEC3"
        },
        {
            "bufferView" : 1,
            "componentType" : 5126,
            "count" : 552,
            "type" : "VEC2"
        },
        {
            "bufferView" : 2,
            "componentType" : 5126,
            "count" : 552,
            "type" : "VEC3"
        },
        {
            "bufferView" : 3,
            "componentType" : 5123,
            "count" : 996,
            "type" : "SCALAR"
        },
        {
            "bufferView" : 4,
            "componentType" : 5126,
            "count" : 386,
            "max" : [
                183.08258056640625,
                0.986883282661438,
                62.96242141723633
            ],
            "min" : [
                -155.41110229492188,
                -0.7916224002838135,
                -64.0255126953125
            ],
            "type" : "VEC3"
        },
        {
            "bufferView" : 5,
            "componentType" : 5126,
            "count" : 386,
            "type" : "VEC2"
        },
        {
            "bufferView" : 6,
            "componentType" : 5126,
            "count" : 386,
            "type" : "VEC3"
        },
        {
            "bufferView" : 7,
            "componentType" : 5123,
            "count" : 612,
            "type" : "SCALAR"
        },
        {
            "bufferView" : 8,
            "componentType" : 5126,
            "count" : 56,
            "max" : [
                159.18783569335938,
                0.8665729761123657,
                62.96242141723633
            ],
            "min" : [
                -155.41110229492188,
                -0.7916224002838135,
                -64.0255126953125
            ],
            "type" : "VEC3"
        },
        {
            "bufferView" : 9,
            "componentType" : 5126,
            "count" : 56,
            "type" : "VEC2"
        },
        {
            "bufferView" : 10,
            "componentType" : 5126,
            "count" : 56,
            "type" : "VEC3"
        },
        {
            "bufferView" : 11,
            "componentType" : 5123,
            "count" : 84,
            "type" : "SCALAR"
        },
        {
            "bufferView" : 12,
            "componentType" : 5126,
            "count" : 24,
            "max" : [
                -173.71534729003906,
                -2.0867795944213867,
                20.219022750854492
            ],
            "min" : [
                -217.9646759033203,
                -2.4601895809173584,
                -21.433359146118164
            ],
            "type" : "VEC3"
        },
        {
            "bufferView" : 13,
            "componentType" : 5126,
            "count" : 24,
            "type" : "VEC2"
        },
        {
            "bufferView" : 14,
            "componentType" : 5126,
            "count" : 24,
            "type" : "VEC3"
        },
        {
            "bufferView" : 15,
            "componentType" : 5123,
            "count" : 36,
            "type" : "SCALAR"
        },
        {
            "bufferView" : 16,
            "componentType" : 5126,
            "count" : 144,
            "max" : [
                -172.81410217285156,
                -2.1694459915161133,
                15.105883598327637
            ],
            "min" : [
                -218.55027770996094,
                -2.395071268081665,
                -16.632095336914062
            ],
            "type" : "VEC3"
        },
        {
            "bufferView" : 17,
            "componentType" : 5126,
            "count" : 144,
            "type" : "VEC2"
        },
        {
            "bufferView" : 18,
            "componentType" : 5126,
            "count" : 144,
            "type" : "VEC3"
        },
        {
            "bufferView" : 19,
            "componentType" : 5123,
            "count" : 216,
            "type" : "SCALAR"
        },
        {
            "bufferView" : 20,
            "componentType" : 5126,
            "count" : 48,
            "max" : [
                -174.34352111816406,
                -2.11177396774292,
                14.50586223602295
            ],
            "min" : [
                -218.99147033691406,
                -2.1951584815979004,
                -16.032075881958008
            ],
            "type" : "VEC3"
        },
        {
            "bufferView" : 21,
            "componentType" : 5126,
            "count" : 48,
            "type" : "VEC2"
        },
        {
            "bufferView" : 22,
            "componentType" : 5126,
            "count" : 48,
            "type" : "VEC3"
        },
        {
            "bufferView" : 23,
            "componentType" : 5123,
            "count" : 72,
            "type" : "SCALAR"
        },
        {
            "bufferView" : 24,
            "componentType" : 5126,
            "count" : 192,
            "max" : [
                -172.55751037597656,
                -2.2844595909118652,
                13.151480674743652
            ],
            "min" : [
                -218.0174560546875,
                -2.3832449913024902,
                -14.677687644958496
            ],
            "type" : "VEC3"
        },
        {
            "bufferView" : 25,
            "componentType" : 5126,
            "count" : 192,
            "type" : "VEC2"
        },
        {
            "bufferView" : 26,
            "componentType" : 5126,
            "count" : 192,
            "type" : "VEC3"
        },
        {
            "bufferView" : 27,
            "componentType" : 5123,
            "count" : 288,
            "type" : "SCALAR"
        },
        {
            "bufferView" : 28,
            "componentType" : 5126,
            "count" : 576,
            "max" : [
                128.72988891601562,
                1.3488432168960571,
                31.4686336517334
            ],
            "min" : [
                -152.15248107910156,
                0.023767590522766113,
                -32.543949127197266
            ],
            "type" : "VEC3"
        },
        {
            "bufferView" : 29,
            "componentType" : 5126,
            "count" : 576,
            "type" : "VEC2"
        },
        {
            "bufferView" : 30,
            "componentType" : 5126,
            "count" : 576,
            "type" : "VEC3"
        },
        {
            "bufferView" : 31,
            "componentType" : 5123,
            "count" : 1116,
            "type" : "SCALAR"
        },
        {
            "bufferView" : 32,
            "componentType" : 5126,
            "count" : 1103,
            "max" : [
                127.62802124023438,
                1.2038193941116333,
                51.31939697265625
            ],
            "min" : [
                -204.1078338623047,
                -0.2815403938293457,
                -52.53373718261719
            ],
            "type" : "VEC3"
        },
        {
            "bufferView" : 33,
            "componentType" : 5126,
            "count" : 1103,
            "type" : "VEC2"
        },
        {
            "bufferView" : 34,
            "componentType" : 5126,
            "count" : 1103,
            "type" : "VEC3"
        },
        {
            "bufferView" : 35,
            "componentType" : 5123,
            "count" : 1908,
            "type" : "SCALAR"
        }
    ],
    "bufferViews" : [
        {
            "buffer" : 0,
            "byteLength" : 6624,
            "byteOffset" : 0,
            "target" : 34962
        },
        {
            "buffer" : 0,
            "byteLength" : 4416,
            "byteOffset" : 6624,
            "target" : 34962
        },
        {
            "buffer" : 0,
            "byteLength" : 6624,
            "byteOffset" : 11040,
            "target" : 34962
        },
        {
            "buffer" : 0,
            "byteLength" : 1992,
            "byteOffset" : 17664,
            "target" : 34963
        },
        {
            "buffer" : 0,
            "byteLength" : 4632,
            "byteOffset" : 19656,
            "target" : 34962
        },
        {
            "buffer" : 0,
            "byteLength" : 3088,
            "byteOffset" : 24288,
            "target" : 34962
        },
        {
            "buffer" : 0,
            "byteLength" : 4632,
            "byteOffset" : 27376,
            "target" : 34962
        },
        {
            "buffer" : 0,
            "byteLength" : 1224,
            "byteOffset" : 32008,
            "target" : 34963
        },
        {
            "buffer" : 0,
            "byteLength" : 672,
            "byteOffset" : 33232,
            "target" : 34962
        },
        {
            "buffer" : 0,
            "byteLength" : 448,
            "byteOffset" : 33904,
            "target" : 34962
        },
        {
            "buffer" : 0,
            "byteLength" : 672,
            "byteOffset" : 34352,
            "target" : 34962
        },
        {
            "buffer" : 0,
            "byteLength" : 168,
            "byteOffset" : 35024,
            "target" : 34963
        },
        {
            "buffer" : 0,
            "byteLength" : 288,
            "byteOffset" : 35192,
            "target" : 34962
        },
        {
            "buffer" : 0,
            "byteLength" : 192,
            "byteOffset" : 35480,
            "target" : 34962
        },
        {
            "buffer" : 0,
            "byteLength" : 288,
            "byteOffset" : 35672,
            "target" : 34962
        },
        {
            "buffer" : 0,
            "byteLength" : 72,
            "byteOffset" : 35960,
            "target" : 34963
        },
        {
            "buffer" : 0,
            "byteLength" : 1728,
            "byteOffset" : 36032,
            "target" : 34962
        },
        {
            "buffer" : 0,
            "byteLength" : 1152,
            "byteOffset" : 37760,
            "target" : 34962
        },
        {
            "buffer" : 0,
            "byteLength" : 1728,
            "byteOffset" : 38912,
            "target" : 34962
        },
        {
            "buffer" : 0,
            "byteLength" : 432,
            "byteOffset" : 40640,
            "target" : 34963
        },
        {
            "buffer" : 0,
            "byteLength" : 576,
            "byteOffset" : 41072,
            "target" : 34962
        },
        {
            "buffer" : 0,
            "byteLength" : 384,
            "byteOffset" : 41648,
            "target" : 34962
        },
        {
            "buffer" : 0,
            "byteLength" : 576,
            "byteOffset" : 42032,
            "target" : 34962
        },
        {
            "buffer" : 0,
            "byteLength" : 144,
            "byteOffset" : 42608,
            "target" : 34963
        },
        {
            "buffer" : 0,
            "byteLength" : 2304,
            "byteOffset" : 42752,
            "target" : 34962
        },
        {
            "buffer" : 0,
            "byteLength" : 1536,
            "byteOffset" : 45056,
            "target" : 34962
        },
        {
            "buffer" : 0,
            "byteLength" : 2304,
            "byteOffset" : 46592,
            "target" : 34962
        },
        {
            "buffer" : 0,
            "byteLength" : 576,
            "byteOffset" : 48896,
            "target" : 34963
        },
        {
            "buffer" : 0,
            "byteLength" : 6912,
            "byteOffset" : 49472,
            "target" : 34962
        },
        {
            "buffer" : 0,
            "byteLength" : 4608,
            "byteOffset" : 56384,
            "target" : 34962
        },
        {
            "buffer" : 0,
            "byteLength" : 6912,
            "byteOffset" : 60992,
            "target" : 34962
        },
        {
            "buffer" : 0,
            "byteLength" : 2232,
            "byteOffset" : 67904,
            "target" : 34963
        },
        {
            "buffer" : 0,
            "byteLength" : 13236,
            "byteOffset" : 70136,
            "target" : 34962
        },
        {
            "buffer" : 0,
            "byteLength" : 8824,
            "byteOffset" : 83372,
            "target" : 34962
        },
        {
            "buffer" : 0,
            "byteLength" : 13236,
            "byteOffset" : 92196,
            "target" : 34962
        },
        {
            "buffer" : 0,
            "byteLength" : 3816,
            "byteOffset" : 105432,
            "target" : 34963
        }
    ],
    "buffers" : [
        {
            "byteLength" : 109248,
            "uri" : "data:application/octet-stream;base64,"
        }
    ]
}
