{
    "asset" : {
        "generator" : "Khronos glTF Blender I/O v3.4.50",
        "version" : "2.0"
    },
    "extensionsUsed" : [
        "KHR_materials_specular",
        "KHR_materials_ior"
    ],
    "scene" : 0,
    "scenes" : [
        {
            "name" : "Scene",
            "nodes" : [
                0
            ]
        }
    ],
    "nodes" : [
        {
            "mesh" : 0,
            "name" : "Cylinder.001"
        }
    ],
    "materials" : [
        {
            "doubleSided" : true,
            "name" : "WagonWheel",
            "pbrMetallicRoughness" : {
                "baseColorFactor" : [
                    0.1548692137002945,
                    0.0673934668302536,
                    0.024095162749290466,
                    1
                ],
                "metallicFactor" : 0,
                "roughnessFactor" : 0.5
            }
        },
        {
            "doubleSided" : true,
            "name" : "WagonSpokes",
            "pbrMetallicRoughness" : {
                "baseColorFactor" : [
                    0.5225157737731934,
                    0.24960877001285553,
                    0.11845682561397552,
                    1
                ],
                "metallicFactor" : 0,
                "roughnessFactor" : 0.5
            }
        },
        {
            "doubleSided" : true,
            "extensions" : {
                "KHR_materials_specular" : {
                    "specularColorFactor" : [
                        0,
                        0,
                        0
                    ]
                },
                "KHR_materials_ior" : {
                    "ior" : 1.4500000476837158
                }
            },
            "name" : "Material.003",
            "pbrMetallicRoughness" : {
                "baseColorFactor" : [
                    0.04569892957806587,
                    0.04569892957806587,
                    0.04569892957806587,
                    1
                ],
                "metallicFactor" : 0,
                "roughnessFactor" : 0.5
            }
        },
        {
            "doubleSided" : true,
            "name" : "Material.005",
            "pbrMetallicRoughness" : {
                "baseColorFactor" : [
                    0.28828510642051697,
                    0.28828510642051697,
                    0.28828510642051697,
                    1
                ],
                "metallicFactor" : 0.7553191781044006,
                "roughnessFactor" : 0.5
            }
        },
        {
            "doubleSided" : true,
            "extensions" : {
                "KHR_materials_specular" : {
                    "specularColorFactor" : [
                        0,
                        0,
                        0
                    ]
                },
                "KHR_materials_ior" : {
                    "ior" : 1.4500000476837158
                }
            },
            "name" : "Fridge Inner",
            "pbrMetallicRoughness" : {
                "baseColorFactor" : [
                    0.17064055800437927,
                    0.17064055800437927,
                    0.17064055800437927,
                    1
                ],
                "metallicFactor" : 0.5744680762290955,
                "roughnessFactor" : 0.5
            }
        },
        {
            "doubleSided" : true,
            "name" : "Handle",
            "pbrMetallicRoughness" : {
                "baseColorFactor" : [
                    0.030072268098592758,
                    0.030072268098592758,
                    0.030072268098592758,
                    1
                ],
                "metallicFactor" : 0,
                "roughnessFactor" : 0.5
            }
        }
    ],
    "meshes" : [
        {
            "name" : "Cylinder.038",
            "primitives" : [
                {
                    "attributes" : {
                        "POSITION" : 0,
                        "TEXCOORD_0" : 1,
                        "NORMAL" : 2
                    },
                    "indices" : 3,
                    "material" : 0
                },
                {
                    "attributes" : {
                        "POSITION" : 4,
                        "TEXCOORD_0" : 5,
                        "NORMAL" : 6
                    },
                    "indices" : 7,
                    "material" : 1
                },
                {
                    "attributes" : {
                        "POSITION" : 8,
                        "TEXCOORD_0" : 9,
                        "NORMAL" : 10
                    },
                    "indices" : 11,
                    "material" : 2
                },
                {
                    "attributes" : {
                        "POSITION" : 12,
                        "TEXCOORD_0" : 13,
                        "NORMAL" : 14
                    },
                    "indices" : 15,
                    "material" : 3
                },
                {
                    "attributes" : {
                        "POSITION" : 16,
                        "TEXCOORD_0" : 17,
                        "NORMAL" : 18
                    },
                    "indices" : 19,
                    "material" : 4
                },
                {
                    "attributes" : {
                        "POSITION" : 20,
                        "TEXCOORD_0" : 21,
                        "NORMAL" : 22
                    },
                    "indices" : 23,
                    "material" : 5
                }
            ]
        }
    ],
    "accessors" : [
        {
            "bufferView" : 0,
            "componentType" : 5126,
            "count" : 2400,
            "max" : [
                -31.202239990234375,
                -1.3864750862121582,
                -51.387786865234375
            ],
            "min" : [
                -38.99563980102539,
                -2.8706984519958496,
                -57.34234619140625
            ],
            "type" : "VEC3"
        },
        {
            "bufferView" : 1,
            "componentType" : 5126,
            "count" : 2400,
            "type" : "VEC2"
        },
        {
            "bufferView" : 2,
            "componentType" : 5126,
            "count" : 2400,
            "type" : "VEC3"
        },
        {
            "bufferView" : 3,
            "componentType" : 5123,
            "count" : 4752,
            "type" : "SCALAR"
        },
        {
            "bufferView" : 4,
            "componentType" : 5126,
            "count" : 5496,
            "max" : [
                -31.281484603881836,
                -1.4986586570739746,
                -51.45039749145508
            ],
            "min" : [
                -38.91940689086914,
                -2.7721621990203857,
                -57.28188705444336
            ],
            "type" : "VEC3"
        },
        {
            "bufferView" : 5,
            "componentType" : 5126,
            "count" : 5496,
            "type" : "VEC2"
        },
        {
            "bufferView" : 6,
            "componentType" : 5126,
            "count" : 5496,
            "type" : "VEC3"
        },
        {
            "bufferView" : 7,
            "componentType" : 5123,
            "count" : 22752,
            "type" : "SCALAR"
        },
        {
            "bufferView" : 8,
            "componentType" : 5126,
            "count" : 764,
            "max" : [
                -30.35824966430664,
                0.9066815376281738,
                -50.31515121459961
            ],
            "min" : [
                -40.069602966308594,
                -2.0999646186828613,
                -58.08678436279297
            ],
            "type" : "VEC3"
        },
        {
            "bufferView" : 9,
            "componentType" : 5126,
            "count" : 764,
            "type" : "VEC2"
        },
        {
            "bufferView" : 10,
            "componentType" : 5126,
            "count" : 764,
            "type" : "VEC3"
        },
        {
            "bufferView" : 11,
            "componentType" : 5123,
            "count" : 1236,
            "type" : "SCALAR"
        },
        {
            "bufferView" : 12,
            "componentType" : 5126,
            "count" : 204,
            "max" : [
                -28.102428436279297,
                5.670086860656738,
                -49.12892150878906
            ],
            "min" : [
                -40.43798065185547,
                -1.0248072147369385,
                -59.71968078613281
            ],
            "type" : "VEC3"
        },
        {
            "bufferView" : 13,
            "componentType" : 5126,
            "count" : 204,
            "type" : "VEC2"
        },
        {
            "bufferView" : 14,
            "componentType" : 5126,
            "count" : 204,
            "type" : "VEC3"
        },
        {
            "bufferView" : 15,
            "componentType" : 5123,
            "count" : 306,
            "type" : "SCALAR"
        },
        {
            "bufferView" : 16,
            "componentType" : 5126,
            "count" : 68,
            "max" : [
                -28.170772552490234,
                5.670086860656738,
                -49.52713394165039
            ],
            "min" : [
                -40.51506423950195,
                -0.9661134481430054,
                -59.59996795654297
            ],
            "type" : "VEC3"
        },
        {
            "bufferView" : 17,
            "componentType" : 5126,
            "count" : 68,
            "type" : "VEC2"
        },
        {
            "bufferView" : 18,
            "componentType" : 5126,
            "count" : 68,
            "type" : "VEC3"
        },
        {
            "bufferView" : 19,
            "componentType" : 5123,
            "count" : 102,
            "type" : "SCALAR"
        },
        {
            "bufferView" : 20,
            "componentType" : 5126,
            "count" : 120,
            "max" : [
                -30.425683975219727,
                4.978354454040527,
                -56.747161865234375
            ],
            "min" : [
                -34.4336051940918,
                4.129692077636719,
                -57.986568450927734
            ],
            "type" : "VEC3"
        },
        {
            "bufferView" : 21,
            "componentType" : 5126,
            "count" : 120,
            "type" : "VEC2"
        },
        {
            "bufferView" : 22,
            "componentType" : 5126,
            "count" : 120,
            "type" : "VEC3"
        },
        {
            "bufferView" : 23,
            "componentType" : 5123,
            "count" : 180,
            "type" : "SCALAR"
        }
    ],
    "bufferViews" : [
        {
            "buffer" : 0,
            "byteLength" : 28800,
            "byteOffset" : 0,
            "target" : 34962
        },
        {
            "buffer" : 0,
            "byteLength" : 19200,
            "byteOffset" : 28800,
            "target" : 34962
        },
        {
            "buffer" : 0,
            "byteLength" : 28800,
            "byteOffset" : 48000,
            "target" : 34962
        },
        {
            "buffer" : 0,
            "byteLength" : 9504,
            "byteOffset" : 76800,
            "target" : 34963
        },
        {
            "buffer" : 0,
            "byteLength" : 65952,
            "byteOffset" : 86304,
            "target" : 34962
        },
        {
            "buffer" : 0,
            "byteLength" : 43968,
            "byteOffset" : 152256,
            "target" : 34962
        },
        {
            "buffer" : 0,
            "byteLength" : 65952,
            "byteOffset" : 196224,
            "target" : 34962
        },
        {
            "buffer" : 0,
            "byteLength" : 45504,
            "byteOffset" : 262176,
            "target" : 34963
        },
        {
            "buffer" : 0,
            "byteLength" : 9168,
            "byteOffset" : 307680,
            "target" : 34962
        },
        {
            "buffer" : 0,
            "byteLength" : 6112,
            "byteOffset" : 316848,
            "target" : 34962
        },
        {
            "buffer" : 0,
            "byteLength" : 9168,
            "byteOffset" : 322960,
            "target" : 34962
        },
        {
            "buffer" : 0,
            "byteLength" : 2472,
            "byteOffset" : 332128,
            "target" : 34963
        },
        {
            "buffer" : 0,
            "byteLength" : 2448,
            "byteOffset" : 334600,
            "target" : 34962
        },
        {
            "buffer" : 0,
            "byteLength" : 1632,
            "byteOffset" : 337048,
            "target" : 34962
        },
        {
            "buffer" : 0,
            "byteLength" : 2448,
            "byteOffset" : 338680,
            "target" : 34962
        },
        {
            "buffer" : 0,
            "byteLength" : 612,
            "byteOffset" : 341128,
            "target" : 34963
        },
        {
            "buffer" : 0,
            "byteLength" : 816,
            "byteOffset" : 341740,
            "target" : 34962
        },
        {
            "buffer" : 0,
            "byteLength" : 544,
            "byteOffset" : 342556,
            "target" : 34962
        },
        {
            "buffer" : 0,
            "byteLength" : 816,
            "byteOffset" : 343100,
            "target" : 34962
        },
        {
            "buffer" : 0,
            "byteLength" : 204,
            "byteOffset" : 343916,
            "target" : 34963
        },
        {
            "buffer" : 0,
            "byteLength" : 1440,
            "byteOffset" : 344120,
            "target" : 34962
        },
        {
            "buffer" : 0,
            "byteLength" : 960,
            "byteOffset" : 345560,
            "target" : 34962
        },
        {
            "buffer" : 0,
            "byteLength" : 1440,
            "byteOffset" : 346520,
            "target" : 34962
        },
        {
            "buffer" : 0,
            "byteLength" : 360,
            "byteOffset" : 347960,
            "target" : 34963
        }
    ],
    "buffers" : [
        {
            "byteLength" : 348320,
            "uri" : "data:application/octet-stream;base64,"
        }
    ]
}
