{
    "asset" : {
        "generator" : "Khronos glTF Blender I/O v3.4.50",
        "version" : "2.0"
    },
    "scene" : 0,
    "scenes" : [
        {
            "name" : "Scene",
            "nodes" : [
                0
            ]
        }
    ],
    "nodes" : [
        {
            "mesh" : 0,
            "name" : "Cylinder.017"
        }
    ],
    "materials" : [
        {
            "doubleSided" : true,
            "name" : "WagonWheel",
            "pbrMetallicRoughness" : {
                "baseColorFactor" : [
                    0.1548692137002945,
                    0.0673934668302536,
                    0.024095162749290466,
                    1
                ],
                "metallicFactor" : 0,
                "roughnessFactor" : 0.5
            }
        },
        {
            "doubleSided" : true,
            "name" : "WagonSpokes",
            "pbrMetallicRoughness" : {
                "baseColorFactor" : [
                    0.5225157737731934,
                    0.24960877001285553,
                    0.11845682561397552,
                    1
                ],
                "metallicFactor" : 0,
                "roughnessFactor" : 0.5
            }
        }
    ],
    "meshes" : [
        {
            "name" : "Cylinder.037",
            "primitives" : [
                {
                    "attributes" : {
                        "POSITION" : 0,
                        "TEXCOORD_0" : 1,
                        "NORMAL" : 2
                    },
                    "indices" : 3,
                    "material" : 0
                },
                {
                    "attributes" : {
                        "POSITION" : 4,
                        "TEXCOORD_0" : 5,
                        "NORMAL" : 6
                    },
                    "indices" : 7,
                    "material" : 1
                }
            ]
        }
    ],
    "accessors" : [
        {
            "bufferView" : 0,
            "componentType" : 5126,
            "count" : 800,
            "max" : [
                4.184134483337402,
                -1.3864750862121582,
                -30.800521850585938
            ],
            "min" : [
                2.699911117553711,
                -2.8706984519958496,
                -30.926204681396484
            ],
            "type" : "VEC3"
        },
        {
            "bufferView" : 1,
            "componentType" : 5126,
            "count" : 800,
            "type" : "VEC2"
        },
        {
            "bufferView" : 2,
            "componentType" : 5126,
            "count" : 800,
            "type" : "VEC3"
        },
        {
            "bufferView" : 3,
            "componentType" : 5123,
            "count" : 1584,
            "type" : "SCALAR"
        },
        {
            "bufferView" : 4,
            "componentType" : 5126,
            "count" : 1832,
            "max" : [
                4.097529411315918,
                -1.4986586570739746,
                -30.770692825317383
            ],
            "min" : [
                2.7828140258789062,
                -2.7721621990203857,
                -30.95603370666504
            ],
            "type" : "VEC3"
        },
        {
            "bufferView" : 5,
            "componentType" : 5126,
            "count" : 1832,
            "type" : "VEC2"
        },
        {
            "bufferView" : 6,
            "componentType" : 5126,
            "count" : 1832,
            "type" : "VEC3"
        },
        {
            "bufferView" : 7,
            "componentType" : 5123,
            "count" : 7584,
            "type" : "SCALAR"
        }
    ],
    "bufferViews" : [
        {
            "buffer" : 0,
            "byteLength" : 9600,
            "byteOffset" : 0,
            "target" : 34962
        },
        {
            "buffer" : 0,
            "byteLength" : 6400,
            "byteOffset" : 9600,
            "target" : 34962
        },
        {
            "buffer" : 0,
            "byteLength" : 9600,
            "byteOffset" : 16000,
            "target" : 34962
        },
        {
            "buffer" : 0,
            "byteLength" : 3168,
            "byteOffset" : 25600,
            "target" : 34963
        },
        {
            "buffer" : 0,
            "byteLength" : 21984,
            "byteOffset" : 28768,
            "target" : 34962
        },
        {
            "buffer" : 0,
            "byteLength" : 14656,
            "byteOffset" : 50752,
            "target" : 34962
        },
        {
            "buffer" : 0,
            "byteLength" : 21984,
            "byteOffset" : 65408,
            "target" : 34962
        },
        {
            "buffer" : 0,
            "byteLength" : 15168,
            "byteOffset" : 87392,
            "target" : 34963
        }
    ],
    "buffers" : [
        {
            "byteLength" : 102560,
            "uri" : "data:application/octet-stream;base64,"
        }
    ]
}
